<?xml version="1.0" encoding="UTF-8"?>
<!DOCTYPE svg PUBLIC "-//W3C//DTD SVG 1.1//EN" "http://www.w3.org/Graphics/SVG/1.1/DTD/svg11.dtd">
<svg xmlns="http://www.w3.org/2000/svg" version="1.1" width="1200px" height="1143px" style="shape-rendering:geometricPrecision; text-rendering:geometricPrecision; image-rendering:optimizeQuality; fill-rule:evenodd; clip-rule:evenodd" xmlns:xlink="http://www.w3.org/1999/xlink">
<g><path style="opacity:0.847" fill="#010101" d="M 597.5,216.5 C 599.595,219.896 601.428,223.563 603,227.5C 628.739,297.396 655.239,366.896 682.5,436C 750.136,439.923 817.803,443.256 885.5,446C 896.008,446.299 906.341,447.299 916.5,449C 856.338,498.152 795.838,546.986 735,595.5C 734.333,597.5 734.333,599.5 735,601.5C 755.217,673.291 774.883,745.291 794,817.5C 794.808,819.579 794.641,821.579 793.5,823.5C 728.805,780.006 663.639,737.34 598,695.5C 533.257,736.932 469.09,779.099 405.5,822C 403.975,823.009 402.308,823.509 400.5,823.5C 418.945,751.586 438.445,679.92 459,608.5C 460.326,604.216 460.992,599.883 461,595.5C 400.833,547.373 340.5,499.04 280,450.5C 279.517,449.552 279.351,448.552 279.5,447.5C 357.511,443.919 435.511,440.085 513.5,436C 541.624,362.912 569.624,289.746 597.5,216.5 Z M 434.5,776.5 C 450.082,719.579 465.582,662.579 481,605.5C 482.182,599.793 483.182,594.126 484,588.5C 434.116,547.613 383.95,507.113 333.5,467C 338.992,465.714 344.659,465.047 350.5,465C 409.811,461.409 469.145,458.409 528.5,456C 551.762,395.291 574.929,334.457 598,273.5C 620.76,334.441 643.927,395.274 667.5,456C 732.548,458.573 797.548,462.073 862.5,466.5C 811.867,506.305 761.7,546.638 712,587.5C 711.39,591.236 711.723,594.903 713,598.5C 728.66,655.158 744.327,711.825 760,768.5C 760.535,771.561 760.868,774.561 761,777.5C 710.187,744.03 659.354,710.53 608.5,677C 605.107,674.637 601.44,672.804 597.5,671.5C 543.976,705.519 490.81,740.185 438,775.5C 436.862,775.989 435.695,776.322 434.5,776.5 Z"/></g>
</svg>
